<svg width="50" height="40" viewBox="0 0 50 40" fill="none" xmlns="http://www.w3.org/2000/svg">
<path d="M24.5603 21.9121L7.82164 38.7438C6.6647 39.9072 4.79391 39.9072 3.64928 38.7438L0.867703 35.9468C-0.289234 34.7834 -0.289234 32.9022 0.867703 31.7512L12.7325 19.8205L0.867703 7.88985C-0.289234 6.72648 -0.289234 4.8453 0.867703 3.69431L3.63697 0.872525C4.79391 -0.290842 6.6647 -0.290842 7.80933 0.872525L24.548 17.7042C25.7173 18.8676 25.7173 20.7488 24.5603 21.9121ZM48.1914 17.7042L31.4527 0.872525C30.2958 -0.290842 28.425 -0.290842 27.2803 0.872525L24.4988 3.66955C23.3418 4.83292 23.3418 6.71411 24.4988 7.8651L36.3635 19.7958L24.4988 31.7265C23.3418 32.8898 23.3418 34.771 24.4988 35.922L27.2803 38.7191C28.4373 39.8824 30.3081 39.8824 31.4527 38.7191L48.1914 21.8874C49.3483 20.7488 49.3483 18.8676 48.1914 17.7042Z" fill="#8C12BC"/>
</svg>
