<svg width="50" height="40" viewBox="0 0 50 40" fill="none" xmlns="http://www.w3.org/2000/svg">
<path d="M24.4972 17.7042L41.2359 0.872525C42.3929 -0.290842 44.2636 -0.290842 45.4083 0.872525L48.1899 3.66955C49.3468 4.83292 49.3468 6.71411 48.1899 7.8651L36.3374 19.8082L48.2022 31.7389C49.3591 32.9022 49.3591 34.7834 48.2022 35.9344L45.4206 38.7438C44.2636 39.9072 42.3929 39.9072 41.2482 38.7438L24.5096 21.9121C23.3403 20.7488 23.3403 18.8676 24.4972 17.7042ZM0.866171 21.9121L17.6048 38.7438C18.7618 39.9072 20.6326 39.9072 21.7772 38.7438L24.5588 35.9468C25.7157 34.7834 25.7157 32.9022 24.5588 31.7512L12.7063 19.8082L24.5711 7.87748C25.728 6.71411 25.728 4.83292 24.5711 3.68193L21.7895 0.872525C20.6326 -0.290842 18.7618 -0.290842 17.6172 0.872525L0.878479 17.7042C-0.290767 18.8676 -0.290767 20.7488 0.866171 21.9121Z" fill="#8C12BC"/>
</svg>
