<?xml version="1.0" encoding="UTF-8"?>
<svg xmlns="http://www.w3.org/2000/svg" xmlns:xlink="http://www.w3.org/1999/xlink" width="20pt" height="29pt" viewBox="0 0 20 29" version="1.1">
<g id="surface1">
<path style=" stroke:none;fill-rule:nonzero;fill:rgb(0%,0%,0%);fill-opacity:1;" d="M 13.789062 14.5 L 19.476562 8.832031 C 20.175781 8.136719 20.175781 7.007812 19.476562 6.3125 L 18.214844 5.054688 C 17.515625 4.355469 16.382812 4.355469 15.6875 5.054688 L 10 10.722656 L 4.3125 5.054688 C 3.617188 4.355469 2.484375 4.355469 1.785156 5.054688 L 0.523438 6.3125 C -0.175781 7.007812 -0.175781 8.136719 0.523438 8.832031 L 6.210938 14.5 L 0.523438 20.167969 C -0.175781 20.863281 -0.175781 21.992188 0.523438 22.6875 L 1.785156 23.945312 C 2.484375 24.644531 3.617188 24.644531 4.3125 23.945312 L 10 18.277344 L 15.6875 23.945312 C 16.382812 24.644531 17.515625 24.644531 18.214844 23.945312 L 19.476562 22.6875 C 20.175781 21.992188 20.175781 20.863281 19.476562 20.167969 Z M 13.789062 14.5 "/>
</g>
</svg>
