<svg width="12" height="12" viewBox="0 0 12 12" fill="none" xmlns="http://www.w3.org/2000/svg">
<path d="M5.7449 10.9408L3.5449 11.8408C3.0449 12.0408 2.4449 11.8408 2.2449 11.3408C2.1449 11.1408 2.1449 11.0408 2.1449 10.8408L2.3449 8.44082C2.3449 8.14082 2.2449 7.94082 2.1449 7.74082L0.544899 5.94082C0.244899 5.54082 0.244898 4.84082 0.644899 4.54082C0.844899 4.44082 0.944899 4.34082 1.1449 4.34082L3.4449 3.84082C3.7449 3.74082 3.9449 3.64082 4.0449 3.34082L5.2449 1.34082C5.5449 0.84082 6.1449 0.74082 6.6449 1.04082C6.7449 1.14082 6.9449 1.24082 6.9449 1.34082L8.1449 3.34082C8.2449 3.54082 8.5449 3.74082 8.7449 3.84082L11.1449 4.34082C11.6449 4.44082 12.0449 5.04082 11.8449 5.54082C11.8449 5.74082 11.7449 5.84082 11.6449 5.94082L10.1449 7.74082C9.9449 7.94082 9.8449 8.24082 9.9449 8.44082L10.1449 10.8408C10.1449 11.4408 9.7449 11.8408 9.2449 11.9408C9.0449 11.9408 8.9449 11.9408 8.7449 11.8408L6.5449 10.9408C6.2449 10.8408 6.0449 10.8408 5.7449 10.9408Z" fill="url(#paint0_linear_1:697)"/>
<defs>
<linearGradient id="paint0_linear_1:697" x1="6.6926" y1="-0.870233" x2="7.29026" y2="18.7395" gradientUnits="userSpaceOnUse">
<stop stop-color="#FD749B"/>
<stop offset="1" stop-color="#281AC8"/>
</linearGradient>
</defs>
</svg>
