<svg width="31" height="28" viewBox="0 0 31 28" fill="none" xmlns="http://www.w3.org/2000/svg">
<path d="M15.0529 0C6.75371 0 0 6.23228 0 13.8907C0 21.5491 6.75371 27.7814 15.0529 27.7814C23.352 27.7814 30.1057 21.5491 30.1057 13.8907C30.1057 6.23228 23.352 0 15.0529 0ZM15.0529 2.31511C21.996 2.31511 27.5969 7.4836 27.5969 13.8907C27.6 16.6618 26.5231 19.3416 24.5629 21.441C22.6027 23.5403 19.8899 24.9193 16.9194 25.3262V17.2661H20.492L21.0527 13.9173H16.9194V12.0884C16.9194 10.6993 17.4149 9.46418 18.8236 9.46418H21.0878V6.54251C20.6902 6.49274 19.8484 6.38508 18.2579 6.38508C14.9362 6.38508 12.9894 8.00335 12.9894 11.6913V13.9173H9.57487V17.2661H12.9894V25.2972C10.06 24.8523 7.39752 23.4608 5.4776 21.3712C3.55767 19.2817 2.50541 16.6302 2.50881 13.8907C2.50881 7.4836 8.10973 2.31511 15.0529 2.31511Z" fill="white"/>
</svg>
