<svg width="153" height="34" viewBox="0 0 153 34" fill="none" xmlns="http://www.w3.org/2000/svg">
<path d="M28.9459 2H11.1081L3 17.2027L11.1081 32H28.9459L37.6622 17.2027L28.9459 2Z" stroke="white" stroke-width="4"/>
<path d="M25.0949 8.89209H15.1625L11.1084 16.5948L15.1625 24.9056H25.0949L29.757 16.5948L25.0949 8.89209Z" fill="#F148E9"/>
<path d="M67.0853 24.4473H64.8514V13.7393H70.9891V15.5996H67.0853V18.3608H70.7181V20.2139H67.0853V24.4473ZM73.0838 24.4473V13.7393H75.3543V22.5723H79.6976V24.4473H73.0838ZM88.1205 24.4473L87.3441 21.8984H83.4403L82.6639 24.4473H80.2176L83.9969 13.6953H86.7728L90.5667 24.4473H88.1205ZM86.8021 19.9941C86.0843 17.6846 85.6791 16.3784 85.5863 16.0757C85.4984 15.7729 85.4349 15.5337 85.3959 15.3579C85.2347 15.9829 84.7733 17.5283 84.0116 19.9941H86.8021ZM98.2425 21.4736C98.2425 22.4404 97.8934 23.2021 97.1952 23.7588C96.5018 24.3154 95.535 24.5938 94.2948 24.5938C93.1522 24.5938 92.1415 24.3789 91.2626 23.9492V21.8398C91.9852 22.1621 92.5956 22.3892 93.0936 22.521C93.5965 22.6528 94.0555 22.7188 94.4706 22.7188C94.9686 22.7188 95.3495 22.6235 95.6131 22.4331C95.8817 22.2427 96.016 21.9595 96.016 21.5835C96.016 21.3735 95.9574 21.188 95.8402 21.0269C95.723 20.8608 95.5497 20.7021 95.3202 20.5508C95.0956 20.3994 94.6341 20.1577 93.9359 19.8257C93.2816 19.5181 92.7909 19.2227 92.4637 18.9395C92.1366 18.6562 91.8753 18.3267 91.68 17.9507C91.4847 17.5747 91.3871 17.1353 91.3871 16.6323C91.3871 15.6851 91.7069 14.9404 92.3465 14.3984C92.9911 13.8564 93.8797 13.5854 95.0126 13.5854C95.5692 13.5854 96.099 13.6514 96.6019 13.7832C97.1097 13.915 97.6395 14.1006 98.1913 14.3398L97.4588 16.105C96.8876 15.8706 96.4139 15.707 96.0379 15.6143C95.6668 15.5215 95.3006 15.4751 94.9393 15.4751C94.5096 15.4751 94.18 15.5752 93.9505 15.7754C93.721 15.9756 93.6063 16.2368 93.6063 16.5591C93.6063 16.7593 93.6527 16.9351 93.7455 17.0864C93.8382 17.2329 93.9847 17.377 94.1849 17.5186C94.39 17.6553 94.8709 17.9043 95.6278 18.2656C96.6288 18.7441 97.3148 19.2251 97.6859 19.7085C98.057 20.187 98.2425 20.7754 98.2425 21.4736ZM108.958 24.4473H106.695V19.8257H102.454V24.4473H100.183V13.7393H102.454V17.936H106.695V13.7393H108.958V24.4473ZM117.835 18.7783H118.582C119.28 18.7783 119.803 18.6416 120.149 18.3682C120.496 18.0898 120.669 17.687 120.669 17.1597C120.669 16.6274 120.523 16.2344 120.23 15.9805C119.942 15.7266 119.488 15.5996 118.868 15.5996H117.835V18.7783ZM122.962 17.0791C122.962 18.2314 122.6 19.1128 121.878 19.7231C121.16 20.3335 120.137 20.6387 118.809 20.6387H117.835V24.4473H115.564V13.7393H118.985C120.284 13.7393 121.27 14.02 121.944 14.5815C122.622 15.1382 122.962 15.9707 122.962 17.0791ZM127.254 18.4927H127.986C128.704 18.4927 129.234 18.373 129.576 18.1338C129.917 17.8945 130.088 17.5186 130.088 17.0059C130.088 16.498 129.912 16.1367 129.561 15.9219C129.214 15.707 128.675 15.5996 127.942 15.5996H127.254V18.4927ZM127.254 20.3384V24.4473H124.983V13.7393H128.103C129.558 13.7393 130.635 14.0054 131.333 14.5376C132.032 15.0649 132.381 15.8682 132.381 16.9473C132.381 17.5771 132.207 18.1387 131.861 18.6318C131.514 19.1201 131.023 19.5034 130.389 19.7817C132 22.189 133.05 23.7441 133.538 24.4473H131.018L128.462 20.3384H127.254ZM144.605 19.0786C144.605 20.8511 144.165 22.2134 143.286 23.1655C142.408 24.1177 141.148 24.5938 139.507 24.5938C137.867 24.5938 136.607 24.1177 135.728 23.1655C134.849 22.2134 134.41 20.8462 134.41 19.064C134.41 17.2817 134.849 15.9219 135.728 14.9844C136.612 14.042 137.876 13.5708 139.522 13.5708C141.167 13.5708 142.425 14.0444 143.294 14.9917C144.168 15.939 144.605 17.3013 144.605 19.0786ZM136.79 19.0786C136.79 20.2749 137.017 21.1758 137.471 21.7812C137.925 22.3867 138.604 22.6895 139.507 22.6895C141.319 22.6895 142.224 21.4858 142.224 19.0786C142.224 16.6665 141.324 15.4604 139.522 15.4604C138.619 15.4604 137.937 15.7656 137.478 16.376C137.019 16.9814 136.79 17.8823 136.79 19.0786Z" fill="white"/>
</svg>
