<svg width="155" height="35" viewBox="0 0 155 35" fill="none" xmlns="http://www.w3.org/2000/svg">
<path d="M29.9474 3.04199H11.4211L3 17.8776L11.4211 32.3176H29.9474L39 17.8776L29.9474 3.04199Z" stroke="white" stroke-width="5"/>
<path d="M25.9476 9.76709H15.6318L11.4213 17.2838L15.6318 25.3939H25.9476L30.7897 17.2838L25.9476 9.76709Z" fill="#F148E9"/>
<path d="M56.6143 26H53.9336V13.1504H61.2988V15.3828H56.6143V18.6963H60.9736V20.9199H56.6143V26ZM63.8125 26V13.1504H66.5371V23.75H71.749V26H63.8125ZM81.8564 26L80.9248 22.9414H76.2402L75.3086 26H72.373L76.9082 13.0977H80.2393L84.792 26H81.8564ZM80.2744 20.6562C79.4131 17.8848 78.9268 16.3174 78.8154 15.9541C78.71 15.5908 78.6338 15.3037 78.5869 15.0928C78.3936 15.8428 77.8398 17.6973 76.9258 20.6562H80.2744ZM94.0029 22.4316C94.0029 23.5918 93.584 24.5059 92.7461 25.1738C91.9141 25.8418 90.7539 26.1758 89.2656 26.1758C87.8945 26.1758 86.6816 25.918 85.627 25.4023V22.8711C86.4941 23.2578 87.2266 23.5303 87.8242 23.6885C88.4277 23.8467 88.9785 23.9258 89.4766 23.9258C90.0742 23.9258 90.5312 23.8115 90.8477 23.583C91.1699 23.3545 91.3311 23.0146 91.3311 22.5635C91.3311 22.3115 91.2607 22.0889 91.1201 21.8955C90.9795 21.6963 90.7715 21.5059 90.4961 21.3242C90.2266 21.1426 89.6729 20.8525 88.835 20.4541C88.0498 20.085 87.4609 19.7305 87.0684 19.3906C86.6758 19.0508 86.3623 18.6553 86.1279 18.2041C85.8936 17.7529 85.7764 17.2256 85.7764 16.6221C85.7764 15.4854 86.1602 14.5918 86.9277 13.9414C87.7012 13.291 88.7676 12.9658 90.127 12.9658C90.7949 12.9658 91.4307 13.0449 92.0342 13.2031C92.6436 13.3613 93.2793 13.584 93.9414 13.8711L93.0625 15.9893C92.377 15.708 91.8086 15.5117 91.3574 15.4004C90.9121 15.2891 90.4727 15.2334 90.0391 15.2334C89.5234 15.2334 89.1279 15.3535 88.8525 15.5938C88.5771 15.834 88.4395 16.1475 88.4395 16.5342C88.4395 16.7744 88.4951 16.9854 88.6064 17.167C88.7178 17.3428 88.8936 17.5156 89.1338 17.6855C89.3799 17.8496 89.957 18.1484 90.8652 18.582C92.0664 19.1562 92.8896 19.7334 93.335 20.3135C93.7803 20.8877 94.0029 21.5938 94.0029 22.4316ZM106.861 26H104.146V20.4541H99.0566V26H96.332V13.1504H99.0566V18.1865H104.146V13.1504H106.861V26ZM117.514 19.1973H118.41C119.248 19.1973 119.875 19.0332 120.291 18.7051C120.707 18.3711 120.915 17.8877 120.915 17.2549C120.915 16.6162 120.739 16.1445 120.388 15.8398C120.042 15.5352 119.497 15.3828 118.753 15.3828H117.514V19.1973ZM123.666 17.1582C123.666 18.541 123.232 19.5986 122.365 20.3311C121.504 21.0635 120.276 21.4297 118.683 21.4297H117.514V26H114.789V13.1504H118.894C120.452 13.1504 121.636 13.4873 122.444 14.1611C123.259 14.8291 123.666 15.8281 123.666 17.1582ZM128.816 18.8545H129.695C130.557 18.8545 131.192 18.7109 131.603 18.4238C132.013 18.1367 132.218 17.6855 132.218 17.0703C132.218 16.4609 132.007 16.0273 131.585 15.7695C131.169 15.5117 130.521 15.3828 129.643 15.3828H128.816V18.8545ZM128.816 21.0693V26H126.092V13.1504H129.836C131.582 13.1504 132.874 13.4697 133.712 14.1084C134.55 14.7412 134.969 15.7051 134.969 17C134.969 17.7559 134.761 18.4297 134.345 19.0215C133.929 19.6074 133.34 20.0674 132.578 20.4014C134.512 23.29 135.771 25.1562 136.357 26H133.334L130.267 21.0693H128.816ZM149.638 19.5576C149.638 21.6846 149.11 23.3193 148.056 24.4619C147.001 25.6045 145.489 26.1758 143.521 26.1758C141.552 26.1758 140.04 25.6045 138.985 24.4619C137.931 23.3193 137.403 21.6787 137.403 19.54C137.403 17.4014 137.931 15.7695 138.985 14.6445C140.046 13.5137 141.563 12.9482 143.538 12.9482C145.513 12.9482 147.021 13.5166 148.064 14.6533C149.113 15.79 149.638 17.4248 149.638 19.5576ZM140.26 19.5576C140.26 20.9932 140.532 22.0742 141.077 22.8008C141.622 23.5273 142.437 23.8906 143.521 23.8906C145.694 23.8906 146.781 22.4463 146.781 19.5576C146.781 16.6631 145.7 15.2158 143.538 15.2158C142.454 15.2158 141.637 15.582 141.086 16.3145C140.535 17.041 140.26 18.1221 140.26 19.5576Z" fill="white"/>
</svg>
