<svg width="31" height="28" viewBox="0 0 31 28" fill="none" xmlns="http://www.w3.org/2000/svg">
<path fill-rule="evenodd" clip-rule="evenodd" d="M9.07394 0.0833441C10.7203 0.0151534 11.2452 0 15.439 0C19.6328 0 20.1578 0.0164162 21.8027 0.0833441C23.4477 0.150272 24.5705 0.386413 25.553 0.728629C26.5818 1.07842 27.5152 1.62521 28.2871 2.33237C29.0731 3.02564 29.6794 3.86413 30.0668 4.79102C30.4486 5.67497 30.7096 6.68521 30.7854 8.16267C30.8612 9.64645 30.8781 10.1187 30.8781 13.8907C30.8781 17.6639 30.8598 18.1362 30.7854 19.6174C30.711 21.0949 30.4486 22.1051 30.0668 22.9891C29.6794 23.9161 29.0721 24.756 28.2871 25.4502C27.5152 26.1574 26.5818 26.7029 25.553 27.0515C24.5705 27.3949 23.4477 27.6298 21.8055 27.698C20.1578 27.7662 19.6328 27.7814 15.439 27.7814C11.2452 27.7814 10.7203 27.7649 9.07394 27.698C7.43179 27.6311 6.30895 27.3949 5.32646 27.0515C4.29615 26.7029 3.36265 26.1565 2.59095 25.4502C1.8055 24.7566 1.19767 23.9171 0.809847 22.9903C0.429486 22.1064 0.168426 21.0962 0.0926341 19.6187C0.0168425 18.1349 0 17.6626 0 13.8907C0 10.1175 0.0182461 9.64518 0.0926341 8.16519C0.167022 6.6852 0.429486 5.67497 0.809847 4.79102C1.19824 3.86424 1.80653 3.02478 2.59235 2.33111C3.36296 1.62458 4.29552 1.07772 5.32506 0.728629C6.30754 0.386413 7.43038 0.151535 9.07253 0.0833441H9.07394ZM21.6778 2.58367C20.0497 2.51674 19.5612 2.50285 15.439 2.50285C11.3168 2.50285 10.8284 2.51674 9.20026 2.58367C7.69425 2.64554 6.87738 2.87158 6.33281 3.06226C5.61279 3.31482 5.09769 3.6141 4.55732 4.10028C4.04509 4.54863 3.65088 5.09445 3.4036 5.6977C3.19167 6.18767 2.94043 6.92261 2.87166 8.27758C2.79727 9.74242 2.78183 10.1819 2.78183 13.8907C2.78183 17.5995 2.79727 18.0389 2.87166 19.5038C2.94043 20.8587 3.19167 21.5937 3.4036 22.0837C3.65063 22.686 4.04502 23.2328 4.55732 23.6811C5.05558 24.142 5.66332 24.4968 6.33281 24.7191C6.87738 24.9098 7.69425 25.1358 9.20026 25.1977C10.8284 25.2646 11.3154 25.2785 15.439 25.2785C19.5626 25.2785 20.0497 25.2646 21.6778 25.1977C23.1838 25.1358 24.0007 24.9098 24.5452 24.7191C25.2653 24.4665 25.7804 24.1673 26.3207 23.6811C26.833 23.2328 27.2274 22.686 27.4744 22.0837C27.6864 21.5937 27.9376 20.8587 28.0064 19.5038C28.0808 18.0389 28.0962 17.5995 28.0962 13.8907C28.0962 10.1819 28.0808 9.74242 28.0064 8.27758C27.9376 6.92261 27.6864 6.18767 27.4744 5.6977C27.1937 5.04989 26.8611 4.58645 26.3207 4.10028C25.8224 3.63945 25.2157 3.28478 24.5452 3.06226C24.0007 2.87158 23.1838 2.64554 21.6778 2.58367ZM13.467 18.1728C14.5683 18.5853 15.7947 18.6409 16.9365 18.3303C18.0784 18.0197 19.0649 17.362 19.7277 16.4696C20.3905 15.5772 20.6884 14.5055 20.5705 13.4375C20.4526 12.3694 19.9262 11.3714 19.0812 10.6137C18.5426 10.1294 17.8913 9.7586 17.1743 9.52793C16.4572 9.29726 15.6923 9.2125 14.9344 9.27975C14.1766 9.347 13.4448 9.56459 12.7917 9.91685C12.1385 10.2691 11.5803 10.7473 11.1572 11.3169C10.7341 11.8866 10.4567 12.5335 10.3449 13.2112C10.233 13.889 10.2896 14.5805 10.5105 15.2362C10.7314 15.8919 11.1112 16.4953 11.6224 17.0031C12.1336 17.5109 12.7636 17.9104 13.467 18.1728ZM9.82764 8.84205C10.5645 8.17905 11.4394 7.65314 12.4022 7.29433C13.365 6.93551 14.3969 6.75084 15.439 6.75084C16.4812 6.75084 17.5131 6.93551 18.4759 7.29433C19.4387 7.65314 20.3135 8.17905 21.0504 8.84205C21.7873 9.50504 22.3718 10.2921 22.7707 11.1584C23.1695 12.0246 23.3747 12.9531 23.3747 13.8907C23.3747 14.8283 23.1695 15.7567 22.7707 16.623C22.3718 17.4892 21.7873 18.2763 21.0504 18.9393C19.5622 20.2783 17.5437 21.0305 15.439 21.0305C13.3343 21.0305 11.3159 20.2783 9.82764 18.9393C8.33941 17.6003 7.50333 15.7843 7.50333 13.8907C7.50333 11.9971 8.33941 10.181 9.82764 8.84205ZM25.1347 7.81414C25.3173 7.65916 25.4635 7.47278 25.5646 7.26606C25.6658 7.05933 25.7197 6.83645 25.7234 6.61061C25.7271 6.38478 25.6803 6.16058 25.5859 5.95128C25.4916 5.74199 25.3515 5.55187 25.174 5.39216C24.9965 5.23245 24.7851 5.10641 24.5525 5.0215C24.3199 4.93659 24.0707 4.89454 23.8197 4.89783C23.5687 4.90112 23.321 4.9497 23.0912 5.04067C22.8614 5.13164 22.6543 5.26317 22.482 5.42747C22.147 5.74699 21.9636 6.1714 21.9707 6.61061C21.9778 7.04982 22.1749 7.46924 22.5201 7.77984C22.8654 8.09045 23.3315 8.26777 23.8197 8.27417C24.3079 8.28057 24.7796 8.11555 25.1347 7.81414Z" fill="white"/>
</svg>
