<svg width="194" height="51" viewBox="0 0 194 51" fill="none" xmlns="http://www.w3.org/2000/svg">
<path d="M42.9189 3H16.1622L4 25.8041L16.1622 48H42.9189L55.9932 25.8041L42.9189 3Z" stroke="black" stroke-width="6"/>
<path d="M37.1418 13.3379H22.2432L16.1621 24.8919L22.2432 37.3581H37.1418L44.1351 24.8919L37.1418 13.3379Z" fill="#F148E9"/>
<path d="M82.0564 34H78.9289V19.0088H87.5217V21.6133H82.0564V25.479H87.1423V28.0732H82.0564V34ZM90.4543 34V19.0088H93.633V31.375H99.7136V34H90.4543ZM111.506 34L110.419 30.4316H104.953L103.866 34H100.442L105.733 18.9473H109.619L114.93 34H111.506ZM109.66 27.7656C108.655 24.5322 108.088 22.7036 107.958 22.2798C107.835 21.856 107.746 21.521 107.691 21.2749C107.466 22.1499 106.82 24.3135 105.753 27.7656H109.66ZM125.676 29.8369C125.676 31.1904 125.188 32.2568 124.21 33.0361C123.239 33.8154 121.886 34.2051 120.15 34.2051C118.55 34.2051 117.135 33.9043 115.905 33.3027V30.3496C116.916 30.8008 117.771 31.1187 118.468 31.3032C119.172 31.4878 119.815 31.5801 120.396 31.5801C121.093 31.5801 121.626 31.4468 121.995 31.1802C122.371 30.9136 122.559 30.5171 122.559 29.9907C122.559 29.6968 122.477 29.437 122.313 29.2114C122.149 28.979 121.906 28.7568 121.585 28.5449C121.271 28.333 120.625 27.9946 119.647 27.5298C118.731 27.0991 118.044 26.6855 117.586 26.2891C117.128 25.8926 116.762 25.4312 116.489 24.9048C116.216 24.3784 116.079 23.7632 116.079 23.0591C116.079 21.7329 116.527 20.6904 117.422 19.9316C118.324 19.1729 119.569 18.7935 121.155 18.7935C121.934 18.7935 122.676 18.8857 123.38 19.0703C124.091 19.2549 124.832 19.5146 125.605 19.8496L124.579 22.3208C123.78 21.9927 123.116 21.7637 122.59 21.6338C122.071 21.5039 121.558 21.439 121.052 21.439C120.45 21.439 119.989 21.5791 119.668 21.8594C119.346 22.1396 119.186 22.5054 119.186 22.9565C119.186 23.2368 119.251 23.4829 119.381 23.6948C119.51 23.8999 119.716 24.1016 119.996 24.2998C120.283 24.4912 120.956 24.8398 122.016 25.3457C123.417 26.0156 124.378 26.689 124.897 27.3657C125.417 28.0356 125.676 28.8594 125.676 29.8369ZM140.678 34H137.51V27.5298H131.572V34H128.394V19.0088H131.572V24.8843H137.51V19.0088H140.678V34ZM153.106 26.0635H154.152C155.129 26.0635 155.861 25.8721 156.346 25.4893C156.831 25.0996 157.074 24.5356 157.074 23.7974C157.074 23.0522 156.869 22.502 156.459 22.1465C156.055 21.791 155.42 21.6133 154.551 21.6133H153.106V26.0635ZM160.283 23.6846C160.283 25.2979 159.778 26.5317 158.766 27.3862C157.761 28.2407 156.329 28.668 154.469 28.668H153.106V34H149.927V19.0088H154.716C156.534 19.0088 157.915 19.4019 158.858 20.188C159.808 20.9673 160.283 22.1328 160.283 23.6846ZM166.292 25.6636H167.318C168.322 25.6636 169.064 25.4961 169.543 25.1611C170.021 24.8262 170.26 24.2998 170.26 23.582C170.26 22.8711 170.014 22.3652 169.522 22.0645C169.037 21.7637 168.281 21.6133 167.256 21.6133H166.292V25.6636ZM166.292 28.2476V34H163.114V19.0088H167.482C169.519 19.0088 171.026 19.3813 172.004 20.1265C172.981 20.8647 173.47 21.9893 173.47 23.5C173.47 24.3818 173.227 25.168 172.742 25.8584C172.257 26.542 171.57 27.0786 170.681 27.4683C172.937 30.8384 174.406 33.0156 175.09 34H171.563L167.984 28.2476H166.292ZM190.584 26.4839C190.584 28.9653 189.968 30.8726 188.738 32.2056C187.508 33.5386 185.744 34.2051 183.447 34.2051C181.15 34.2051 179.386 33.5386 178.156 32.2056C176.926 30.8726 176.31 28.9585 176.31 26.4634C176.31 23.9683 176.926 22.0645 178.156 20.752C179.393 19.4326 181.164 18.7729 183.468 18.7729C185.771 18.7729 187.531 19.436 188.748 20.7622C189.972 22.0884 190.584 23.9956 190.584 26.4839ZM179.643 26.4839C179.643 28.1587 179.961 29.4199 180.596 30.2676C181.232 31.1152 182.182 31.5391 183.447 31.5391C185.983 31.5391 187.251 29.854 187.251 26.4839C187.251 23.1069 185.99 21.4185 183.468 21.4185C182.203 21.4185 181.249 21.8457 180.607 22.7002C179.964 23.5479 179.643 24.8091 179.643 26.4839Z" fill="black"/>
</svg>
