<svg width="176" height="543" viewBox="0 0 176 543" fill="none" xmlns="http://www.w3.org/2000/svg">
<line x1="71.3155" y1="81.6548" x2="105.389" y2="125.878" stroke="url(#paint0_linear)" stroke-width="8"/>
<path d="M71.6185 10.6183L93.3371 46.92L71.2066 82.9721L27.0154 82.7205L5.2968 46.4188L27.4273 10.3668L71.6185 10.6183Z" stroke="url(#paint1_linear)" stroke-width="8"/>
<path d="M49.7578 66H45.9609V41.5781C45.9609 39.5469 46.0234 37.625 46.1484 35.8125C45.8203 36.1406 45.4531 36.4844 45.0469 36.8438C44.6406 37.2031 42.7812 38.7266 39.4688 41.4141L37.4062 38.7422L46.4766 31.7344H49.7578V66Z" fill="#3F1456"/>
<line x1="105.971" y1="193.989" x2="71.1884" y2="234.717" stroke="url(#paint2_linear)" stroke-width="8"/>
<path d="M148.834 123.713L170.553 160.015L148.422 196.067L104.231 195.815L82.5126 159.514L104.643 123.462L148.834 123.713Z" stroke="url(#paint3_linear)" stroke-width="8"/>
<path d="M137.867 179H115.344V175.648L124.367 166.578C127.117 163.797 128.93 161.812 129.805 160.625C130.68 159.438 131.336 158.281 131.773 157.156C132.211 156.031 132.43 154.82 132.43 153.523C132.43 151.695 131.875 150.25 130.766 149.188C129.656 148.109 128.117 147.57 126.148 147.57C124.727 147.57 123.375 147.805 122.094 148.273C120.828 148.742 119.414 149.594 117.852 150.828L115.789 148.18C118.945 145.555 122.383 144.242 126.102 144.242C129.32 144.242 131.844 145.07 133.672 146.727C135.5 148.367 136.414 150.578 136.414 153.359C136.414 155.531 135.805 157.68 134.586 159.805C133.367 161.93 131.086 164.617 127.742 167.867L120.242 175.203V175.391H137.867V179Z" fill="#3F1456"/>
<line x1="71.2331" y1="306.291" x2="105.307" y2="347.614" stroke="url(#paint4_linear)" stroke-width="8"/>
<path d="M71.263 235.449L92.9816 271.751L70.8511 307.803L26.6599 307.551L4.94133 271.249L27.0718 235.197L71.263 235.449Z" stroke="url(#paint5_linear)" stroke-width="8"/>
<path d="M57.5781 264.797C57.5781 266.984 56.9609 268.773 55.7266 270.164C54.5078 271.555 52.7734 272.484 50.5234 272.953V273.141C53.2734 273.484 55.3125 274.359 56.6406 275.766C57.9688 277.172 58.6328 279.016 58.6328 281.297C58.6328 284.562 57.5 287.078 55.2344 288.844C52.9688 290.594 49.75 291.469 45.5781 291.469C43.7656 291.469 42.1016 291.328 40.5859 291.047C39.0859 290.781 37.625 290.305 36.2031 289.617V285.914C37.6875 286.648 39.2656 287.211 40.9375 287.602C42.625 287.977 44.2188 288.164 45.7188 288.164C51.6406 288.164 54.6016 285.844 54.6016 281.203C54.6016 277.047 51.3359 274.969 44.8047 274.969H41.4297V271.617H44.8516C47.5234 271.617 49.6406 271.031 51.2031 269.859C52.7656 268.672 53.5469 267.031 53.5469 264.938C53.5469 263.266 52.9688 261.953 51.8125 261C50.6719 260.047 49.1172 259.57 47.1484 259.57C45.6484 259.57 44.2344 259.773 42.9062 260.18C41.5781 260.586 40.0625 261.336 38.3594 262.43L36.3906 259.805C37.7969 258.695 39.4141 257.828 41.2422 257.203C43.0859 256.562 45.0234 256.242 47.0547 256.242C50.3828 256.242 52.9688 257.008 54.8125 258.539C56.6562 260.055 57.5781 262.141 57.5781 264.797Z" fill="#3F1456"/>
<line x1="105.971" y1="422.354" x2="71.1884" y2="463.082" stroke="url(#paint6_linear)" stroke-width="8"/>
<path d="M149.19 348.544L170.909 384.846L148.778 420.898L104.587 420.646L82.8686 384.344L104.999 348.292L149.19 348.544Z" stroke="url(#paint7_linear)" stroke-width="8"/>
<path d="M139.484 393.125H134.398V401H130.672V393.125H114.008V389.727L130.273 366.547H134.398V389.586H139.484V393.125ZM130.672 389.586V378.195C130.672 375.961 130.75 373.438 130.906 370.625H130.719C129.969 372.125 129.266 373.367 128.609 374.352L117.898 389.586H130.672Z" fill="#3F1456"/>
<path d="M71.9744 460.279L93.693 496.581L71.5626 532.633L27.3714 532.382L5.65275 496.08L27.7832 460.028L71.9744 460.279Z" stroke="url(#paint8_linear)" stroke-width="8"/>
<path d="M50.0547 493.07C53.6641 493.07 56.5 493.969 58.5625 495.766C60.6406 497.547 61.6797 499.992 61.6797 503.102C61.6797 506.648 60.5469 509.43 58.2812 511.445C56.0312 513.461 52.9219 514.469 48.9531 514.469C45.0938 514.469 42.1484 513.852 40.1172 512.617V508.867C41.2109 509.57 42.5703 510.125 44.1953 510.531C45.8203 510.922 47.4219 511.117 49 511.117C51.75 511.117 53.8828 510.469 55.3984 509.172C56.9297 507.875 57.6953 506 57.6953 503.547C57.6953 498.766 54.7656 496.375 48.9062 496.375C47.4219 496.375 45.4375 496.602 42.9531 497.055L40.9375 495.766L42.2266 479.734H59.2656V483.32H45.5547L44.6875 493.609C46.4844 493.25 48.2734 493.07 50.0547 493.07Z" fill="#3F1456"/>
<defs>
<linearGradient id="paint0_linear" x1="68.147" y1="84.0962" x2="102.22" y2="128.319" gradientUnits="userSpaceOnUse">
<stop stop-color="#E616CF"/>
<stop offset="1" stop-color="#C211D3"/>
</linearGradient>
<linearGradient id="paint1_linear" x1="105.728" y1="93.4249" x2="25.4142" y2="4.48884" gradientUnits="userSpaceOnUse">
<stop stop-color="#FF19CC"/>
<stop offset="1" stop-color="#B80FD3"/>
</linearGradient>
<linearGradient id="paint2_linear" x1="102.929" y1="191.391" x2="68.1467" y2="232.119" gradientUnits="userSpaceOnUse">
<stop stop-color="#E616CF"/>
<stop offset="1" stop-color="#C211D3"/>
</linearGradient>
<linearGradient id="paint3_linear" x1="182.944" y1="206.52" x2="102.63" y2="117.584" gradientUnits="userSpaceOnUse">
<stop stop-color="#FF19CC"/>
<stop offset="1" stop-color="#B80FD3"/>
</linearGradient>
<linearGradient id="paint4_linear" x1="68.147" y1="308.835" x2="102.22" y2="350.159" gradientUnits="userSpaceOnUse">
<stop stop-color="#E616CF"/>
<stop offset="1" stop-color="#C211D3"/>
</linearGradient>
<linearGradient id="paint5_linear" x1="105.372" y1="318.255" x2="25.0587" y2="229.319" gradientUnits="userSpaceOnUse">
<stop stop-color="#FF19CC"/>
<stop offset="1" stop-color="#B80FD3"/>
</linearGradient>
<linearGradient id="paint6_linear" x1="102.929" y1="419.756" x2="68.1467" y2="460.484" gradientUnits="userSpaceOnUse">
<stop stop-color="#E616CF"/>
<stop offset="1" stop-color="#C211D3"/>
</linearGradient>
<linearGradient id="paint7_linear" x1="183.3" y1="431.35" x2="102.986" y2="342.414" gradientUnits="userSpaceOnUse">
<stop stop-color="#FF19CC"/>
<stop offset="1" stop-color="#B80FD3"/>
</linearGradient>
<linearGradient id="paint8_linear" x1="106.084" y1="543.086" x2="25.7701" y2="454.15" gradientUnits="userSpaceOnUse">
<stop stop-color="#FF19CC"/>
<stop offset="1" stop-color="#B80FD3"/>
</linearGradient>
</defs>
</svg>
