<svg width="30" height="25" viewBox="0 0 30 25" fill="none" xmlns="http://www.w3.org/2000/svg">
<path d="M30 3.54564C28.8968 4.02847 27.7116 4.3547 26.4657 4.50216C27.7513 3.74242 28.713 2.54668 29.1716 1.13805C27.9638 1.84661 26.6419 2.34536 25.2634 2.61262C24.3364 1.63505 23.1085 0.987102 21.7704 0.769372C20.4324 0.551642 19.059 0.776311 17.8634 1.4085C16.6679 2.04069 15.7171 3.04502 15.1588 4.26558C14.6004 5.48613 14.4656 6.85462 14.7754 8.15857C12.328 8.0372 9.93389 7.40895 7.74829 6.31458C5.5627 5.22021 3.63451 3.68418 2.08888 1.80617C1.56038 2.70657 1.2565 3.75052 1.2565 4.86232C1.25591 5.86319 1.50546 6.84873 1.98302 7.7315C2.46057 8.61428 3.15136 9.36698 3.9941 9.92283C3.01675 9.89212 2.06096 9.63129 1.20629 9.16206V9.24035C1.20619 10.6441 1.69783 12.0047 2.59779 13.0912C3.49775 14.1777 4.7506 14.9232 6.14375 15.2013C5.2371 15.4436 4.28654 15.4793 3.36387 15.3057C3.75693 16.5135 4.52259 17.5697 5.55364 18.3265C6.5847 19.0832 7.82954 19.5025 9.11389 19.5258C6.93363 21.2162 4.24102 22.1332 1.46922 22.1291C0.978219 22.1293 0.487637 22.1009 0 22.0443C2.81354 23.831 6.08871 24.7792 9.43363 24.7755C20.7566 24.7755 26.9466 15.5131 26.9466 7.48C26.9466 7.21902 26.94 6.95542 26.9281 6.69444C28.1322 5.83445 29.1715 4.76953 29.9974 3.54956L30 3.54564Z" fill="white"/>
</svg>
